# xmcd
#
# Track frame offsets:
# 150
# 17130
# 34590
# 48990
# 70125
# 84955
# 102775
# 130520
# 153365
# 166100
# 181655
# 202315
# 213565
# 231910
#
# Disc length: 3311 seconds
#
# Revision: 0
# Processed by: cddbd v1.5.1PL0 Copyright (c) Steve Scherf et al.
# Submitted via: Audion 3.0.2 (http://www.panic.com/audion/)
#
DISCID=ae0ced0e
DTITLE=Michael Hurley - Blue Navigator Plus
DYEAR=1900
DGENRE=
TTITLE0=Blue Navigator
TTITLE1=Whoever Heard of You?
TTITLE2=Dices, Dices
TTITLE3=Werewolf
TTITLE4=Wolf Dispatch
TTITLE5='54 Chevy
TTITLE6=Code of the Mountains
TTITLE7=Ghost Woman Blues
TTITLE8=Someone to Say Bye Bye To
TTITLE9=Open Up
TTITLE10=National Weed Growers Assoc.
TTITLE11=Slippery Rag
TTITLE12=Coloured Birds
TTITLE13=Wildegeeses
EXTD=
EXTT0=
EXTT1=
EXTT2=
EXTT3=
EXTT4=
EXTT5=
EXTT6=
EXTT7=
EXTT8=
EXTT9=
EXTT10=
EXTT11=
EXTT12=
EXTT13=
PLAYORDER=
